<?xml version="1.0" standalone="no"?>
<!DOCTYPE svg PUBLIC "-//W3C//DTD SVG 20010904//EN"
 "http://www.w3.org/TR/2001/REC-SVG-20010904/DTD/svg10.dtd">
<svg version="1.0" xmlns="http://www.w3.org/2000/svg"
 width="64.000000pt" height="64.000000pt" viewBox="0 0 64.000000 64.000000"
 preserveAspectRatio="xMidYMid meet">

<g transform="translate(0.000000,64.000000) scale(0.100000,-0.100000)"
fill="#000000" stroke="none">
<path d="M16 624 c-14 -13 -16 -55 -16 -304 0 -329 -2 -320 80 -320 82 0 80
-9 80 320 0 249 -2 291 -16 304 -21 21 -107 21 -128 0z"/>
<path d="M227 622 c-14 -15 -17 -40 -17 -126 0 -59 5 -116 10 -127 10 -18 23
-19 203 -19 137 0 196 3 205 12 8 8 12 51 12 129 0 94 -3 121 -16 133 -13 13
-45 16 -198 16 -164 0 -185 -2 -199 -18z"/>
<path d="M220 271 c-5 -11 -10 -66 -10 -123 0 -155 -10 -148 215 -148 154 0
186 3 199 16 13 12 16 39 16 133 0 78 -4 121 -12 129 -9 9 -68 12 -205 12
-180 0 -193 -1 -203 -19z"/>
</g>
</svg>
